<svg xmlns="http://www.w3.org/2000/svg" style="cursor: move; touch-action: none;" width="1280" height="576"><g transform="translate(78.72028412217765,64.16584080536802) scale(0.8681402276010425)"><path class="link" style="stroke-width: 0.5px; stroke-opacity: 1; stroke: rgb(80, 80, 80); fill: none;" marker-end="" d="M480,173, 660,218"></path><path class="link" style="stroke-width: 0.5px; stroke-opacity: 1; stroke: rgb(80, 80, 80); fill: none;" marker-end="" d="M480,173, 660,258"></path><path class="link" style="stroke-width: 0.5px; stroke-opacity: 1; stroke: rgb(80, 80, 80); fill: none;" marker-end="" d="M480,173, 660,298"></path><path class="link" style="stroke-width: 0.5px; stroke-opacity: 1; stroke: rgb(80, 80, 80); fill: none;" marker-end="" d="M480,203, 660,218"></path><path class="link" style="stroke-width: 0.5px; stroke-opacity: 1; stroke: rgb(80, 80, 80); fill: none;" marker-end="" d="M480,203, 660,258"></path><path class="link" style="stroke-width: 0.5px; stroke-opacity: 1; stroke: rgb(80, 80, 80); fill: none;" marker-end="" d="M480,203, 660,298"></path><path class="link" style="stroke-width: 0.5px; stroke-opacity: 1; stroke: rgb(80, 80, 80); fill: none;" marker-end="" d="M480,233, 660,218"></path><path class="link" style="stroke-width: 0.5px; stroke-opacity: 1; stroke: rgb(80, 80, 80); fill: none;" marker-end="" d="M480,233, 660,258"></path><path class="link" style="stroke-width: 0.5px; stroke-opacity: 1; stroke: rgb(80, 80, 80); fill: none;" marker-end="" d="M480,233, 660,298"></path><path class="link" style="stroke-width: 0.5px; stroke-opacity: 1; stroke: rgb(80, 80, 80); fill: none;" marker-end="" d="M480,263, 660,218"></path><path class="link" style="stroke-width: 0.5px; stroke-opacity: 1; stroke: rgb(80, 80, 80); fill: none;" marker-end="" d="M480,263, 660,258"></path><path class="link" style="stroke-width: 0.5px; stroke-opacity: 1; stroke: rgb(80, 80, 80); fill: none;" marker-end="" d="M480,263, 660,298"></path><path class="link" style="stroke-width: 0.5px; stroke-opacity: 1; stroke: rgb(80, 80, 80); fill: none;" marker-end="" d="M480,293, 660,218"></path><path class="link" style="stroke-width: 0.5px; stroke-opacity: 1; stroke: rgb(80, 80, 80); fill: none;" marker-end="" d="M480,293, 660,258"></path><path class="link" style="stroke-width: 0.5px; stroke-opacity: 1; stroke: rgb(80, 80, 80); fill: none;" marker-end="" d="M480,293, 660,298"></path><path class="link" style="stroke-width: 0.5px; stroke-opacity: 1; stroke: rgb(80, 80, 80); fill: none;" marker-end="" d="M480,323, 660,218"></path><path class="link" style="stroke-width: 0.5px; stroke-opacity: 1; stroke: rgb(80, 80, 80); fill: none;" marker-end="" d="M480,323, 660,258"></path><path class="link" style="stroke-width: 0.5px; stroke-opacity: 1; stroke: rgb(80, 80, 80); fill: none;" marker-end="" d="M480,323, 660,298"></path><path class="link" style="stroke-width: 0.5px; stroke-opacity: 1; stroke: rgb(80, 80, 80); fill: none;" marker-end="" d="M480,353, 660,218"></path><path class="link" style="stroke-width: 0.5px; stroke-opacity: 1; stroke: rgb(80, 80, 80); fill: none;" marker-end="" d="M480,353, 660,258"></path><path class="link" style="stroke-width: 0.5px; stroke-opacity: 1; stroke: rgb(80, 80, 80); fill: none;" marker-end="" d="M480,353, 660,298"></path><path class="link" style="stroke-width: 0.5px; stroke-opacity: 1; stroke: rgb(80, 80, 80); fill: none;" marker-end="" d="M480,383, 660,218"></path><path class="link" style="stroke-width: 0.5px; stroke-opacity: 1; stroke: rgb(80, 80, 80); fill: none;" marker-end="" d="M480,383, 660,258"></path><path class="link" style="stroke-width: 0.5px; stroke-opacity: 1; stroke: rgb(80, 80, 80); fill: none;" marker-end="" d="M480,383, 660,298"></path><path class="link" style="stroke-width: 0.5px; stroke-opacity: 1; stroke: rgb(80, 80, 80); fill: none;" marker-end="" d="M660,218, 840,278"></path><path class="link" style="stroke-width: 0.5px; stroke-opacity: 1; stroke: rgb(80, 80, 80); fill: none;" marker-end="" d="M660,258, 840,278"></path><path class="link" style="stroke-width: 0.5px; stroke-opacity: 1; stroke: rgb(80, 80, 80); fill: none;" marker-end="" d="M660,298, 840,278"></path><path class="link" style="stroke-width: 0.5px; stroke-opacity: 1; stroke: rgb(80, 80, 80); fill: none;" marker-end="" d="M480,173, 660,338"></path><path class="link" style="stroke-width: 0.5px; stroke-opacity: 1; stroke: rgb(80, 80, 80); fill: none;" marker-end="" d="M480,203, 660,338"></path><path class="link" style="stroke-width: 0.5px; stroke-opacity: 1; stroke: rgb(80, 80, 80); fill: none;" marker-end="" d="M480,233, 660,338"></path><path class="link" style="stroke-width: 0.5px; stroke-opacity: 1; stroke: rgb(80, 80, 80); fill: none;" marker-end="" d="M480,263, 660,338"></path><path class="link" style="stroke-width: 0.5px; stroke-opacity: 1; stroke: rgb(80, 80, 80); fill: none;" marker-end="" d="M480,293, 660,338"></path><path class="link" style="stroke-width: 0.5px; stroke-opacity: 1; stroke: rgb(80, 80, 80); fill: none;" marker-end="" d="M480,323, 660,338"></path><path class="link" style="stroke-width: 0.5px; stroke-opacity: 1; stroke: rgb(80, 80, 80); fill: none;" marker-end="" d="M480,353, 660,338"></path><path class="link" style="stroke-width: 0.5px; stroke-opacity: 1; stroke: rgb(80, 80, 80); fill: none;" marker-end="" d="M480,383, 660,338"></path><path class="link" style="stroke-width: 0.5px; stroke-opacity: 1; stroke: rgb(80, 80, 80); fill: none;" marker-end="" d="M660,338, 840,278"></path><circle r="10" class="node" id="0_0" style="fill: rgb(255, 255, 255); stroke: rgb(51, 51, 51);" cx="480" cy="173"></circle><circle r="10" class="node" id="0_1" style="fill: rgb(255, 255, 255); stroke: rgb(51, 51, 51);" cx="480" cy="203"></circle><circle r="10" class="node" id="0_2" style="fill: rgb(255, 255, 255); stroke: rgb(51, 51, 51);" cx="480" cy="233"></circle><circle r="10" class="node" id="0_3" style="fill: rgb(255, 255, 255); stroke: rgb(51, 51, 51);" cx="480" cy="263"></circle><circle r="10" class="node" id="0_4" style="fill: rgb(255, 255, 255); stroke: rgb(51, 51, 51);" cx="480" cy="293"></circle><circle r="10" class="node" id="0_5" style="fill: rgb(255, 255, 255); stroke: rgb(51, 51, 51);" cx="480" cy="323"></circle><circle r="10" class="node" id="0_6" style="fill: rgb(255, 255, 255); stroke: rgb(51, 51, 51);" cx="480" cy="353"></circle><circle r="10" class="node" id="0_7" style="fill: rgb(255, 255, 255); stroke: rgb(51, 51, 51);" cx="480" cy="383"></circle><circle r="10" class="node" id="1_0" style="fill: rgb(255, 255, 255); stroke: rgb(51, 51, 51);" cx="660" cy="218"></circle><circle r="10" class="node" id="1_1" style="fill: rgb(255, 255, 255); stroke: rgb(51, 51, 51);" cx="660" cy="258"></circle><circle r="10" class="node" id="1_2" style="fill: rgb(255, 255, 255); stroke: rgb(51, 51, 51);" cx="660" cy="298"></circle><circle r="10" class="node" id="1_3" style="fill: rgb(255, 255, 255); stroke: rgb(51, 51, 51);" cx="660" cy="338"></circle><circle r="10" class="node" id="2_0" style="fill: rgb(255, 255, 255); stroke: rgb(51, 51, 51);" cx="840" cy="278"></circle><text class="text" dy=".35em" style="font-size: 12px;" x="445" y="423">Input Layer ∈ ℝ⁸</text><text class="text" dy=".35em" style="font-size: 12px;" x="625" y="423">Hidden Layer ∈ ℝ⁴</text><text class="text" dy=".35em" style="font-size: 12px;" x="805" y="423">Output Layer ∈ ℝ¹</text></g><defs><marker id="arrow" viewBox="0 -5 10 10" markerWidth="7" markerHeight="7" orient="auto" refX="40"><path d="M0,-5L10,0L0,5" style="stroke: rgb(80, 80, 80); fill: none;"></path></marker></defs></svg>